<svg width="150" height="58" viewBox="0 0 150 58" fill="none" xmlns="http://www.w3.org/2000/svg">
<g clip-path="url(#clip0_1720_2)">
<mask id="mask0_1720_2" style="mask-type:alpha" maskUnits="userSpaceOnUse" x="28" y="2" width="27" height="27">
<path d="M41.0301 16.0744V2.83984H28.3252V28.7688H54.2756V16.0744H41.0301Z" fill="#57C4D9"/>
</mask>
<g mask="url(#mask0_1720_2)">
<path d="M41.0301 16.0744V2.83984H28.3252V28.7688H54.2756V16.0744H41.0301Z" fill="#57C4D9"/>
<path opacity="0.16" d="M56.4775 0.640625H38.376V18.7272H56.4775V0.640625Z" fill="black"/>
<path opacity="0.16" d="M32.9453 24.1523H14.8438V42.239H32.9453V24.1523Z" fill="black"/>
</g>
<mask id="mask1_1720_2" style="mask-type:alpha" maskUnits="userSpaceOnUse" x="44" y="0" width="13" height="13">
<path d="M56.4768 0.640625H44.7373V12.3704H56.4768V0.640625Z" fill="#57C4D9"/>
</mask>
<g mask="url(#mask1_1720_2)">
<path d="M56.4768 0.640625H44.7373V12.3704H56.4768V0.640625Z" fill="#57C4D9"/>
<path opacity="0.16" d="M49.2366 7.875H37.4971V19.6048H49.2366V7.875Z" fill="black"/>
</g>
<mask id="mask2_1720_2" style="mask-type:alpha" maskUnits="userSpaceOnUse" x="2" y="28" width="27" height="27">
<path d="M15.4467 41.6358V54.8704H28.1516V28.9414H2.20117V41.6358H15.4467Z" fill="#3780D4"/>
</mask>
<g mask="url(#mask2_1720_2)">
<path d="M15.4467 41.6358V54.8704H28.1516V28.9414H2.20117V41.6358H15.4467Z" fill="#3780D4"/>
<path opacity="0.16" d="M18.1015 38.9805H0V57.0671H18.1015V38.9805Z" fill="white"/>
<path opacity="0.16" d="M41.6338 15.4688H23.5322V33.5553H41.6338V15.4688Z" fill="white"/>
</g>
<mask id="mask3_1720_2" style="mask-type:alpha" maskUnits="userSpaceOnUse" x="0" y="45" width="12" height="13">
<path d="M11.7394 45.3203H0V57.0501H11.7394V45.3203Z" fill="#3780D4"/>
</mask>
<g mask="url(#mask3_1720_2)">
<path d="M11.7394 45.3203H0V57.0501H11.7394V45.3203Z" fill="#3780D4"/>
<path opacity="0.16" d="M19.1876 37.8984H7.44824V49.6282H19.1876V37.8984Z" fill="white"/>
</g>
<path d="M74.2571 21.4224H67.5972L66.5296 24.5717H61.9795L68.436 6.74219H73.469L79.9255 24.5717H75.3246L74.2571 21.4224ZM73.1386 18.0698L70.9271 11.5424L68.741 18.0698H73.1386ZM94.7273 6.74219V10.2217H89.9994V24.5717H85.6527V10.2217H80.9247V6.74219H94.7273ZM106.009 24.5717L102.298 17.8412H101.256V24.5717H96.9091V6.74219H104.204C105.611 6.74219 106.806 6.9877 107.789 7.47873C108.788 7.96976 109.534 8.64705 110.025 9.51058C110.517 10.3572 110.763 11.3054 110.763 12.3552C110.763 13.5404 110.424 14.5988 109.746 15.5299C109.085 16.4612 108.102 17.1216 106.797 17.5111L110.915 24.5717H106.009ZM101.256 14.768H103.95C104.747 14.768 105.34 14.5733 105.73 14.1839C106.136 13.7944 106.34 13.2441 106.34 12.533C106.34 11.8557 106.136 11.3223 105.73 10.9329C105.34 10.5435 104.747 10.3487 103.95 10.3487H101.256V14.768ZM117.838 10.2217V13.8283H123.659V17.1808H117.838V21.0922H124.421V24.5717H113.491V6.74219H124.421V10.2217H117.838ZM147.451 6.74219V24.5717H143.105V13.8791L139.114 24.5717H135.606L131.589 13.8536V24.5717H127.243V6.74219H132.378L137.386 19.0857L142.342 6.74219H147.451Z" fill="#3780D4"/>
<path d="M50.526 42.0019C50.526 43.0347 50.2888 43.9829 49.8143 44.8464C49.3398 45.6931 48.6111 46.3788 47.6282 46.9037C46.6453 47.4286 45.4252 47.691 43.9679 47.691H41.2734V54.0914H36.9268V36.2619H43.9679C45.3914 36.2619 46.5945 36.5074 47.5774 36.9985C48.5602 37.4895 49.2974 38.1668 49.7888 39.0302C50.2803 39.8938 50.526 40.8844 50.526 42.0019ZM43.6374 44.2369C44.4678 44.2369 45.0862 44.0422 45.493 43.6527C45.8997 43.2633 46.103 42.7131 46.103 42.0019C46.103 41.2908 45.8997 40.7404 45.493 40.351C45.0862 39.9615 44.4678 39.7668 43.6374 39.7668H41.2734V44.2369H43.6374ZM61.8892 54.0914L58.1778 47.3609H57.1356V54.0914H52.7889V36.2619H60.0842C61.491 36.2619 62.6856 36.5074 63.6686 36.9985C64.6683 37.4895 65.4139 38.1668 65.9053 39.0302C66.3969 39.8769 66.6425 40.8251 66.6425 41.8749C66.6425 43.0601 66.3037 44.1183 65.6259 45.0496C64.965 45.9809 63.982 46.6413 62.6771 47.0308L66.7951 54.0914H61.8892ZM57.1356 44.2877H59.8301C60.6266 44.2877 61.2198 44.0929 61.6096 43.7036C62.0162 43.3141 62.2196 42.7638 62.2196 42.0527C62.2196 41.3754 62.0162 40.842 61.6096 40.4526C61.2198 40.0631 60.6266 39.8685 59.8301 39.8685H57.1356V44.2877ZM77.8101 54.2692C76.1324 54.2692 74.5903 53.8797 73.1838 53.1009C71.7942 52.322 70.6842 51.2383 69.8538 49.8499C69.0405 48.4445 68.6337 46.8699 68.6337 45.1259C68.6337 43.3818 69.0405 41.8156 69.8538 40.4272C70.6842 39.0387 71.7942 37.9551 73.1838 37.1761C74.5903 36.3973 76.1324 36.0078 77.8101 36.0078C79.4878 36.0078 81.0214 36.3973 82.411 37.1761C83.8175 37.9551 84.9189 39.0387 85.7155 40.4272C86.5288 41.8156 86.9356 43.3818 86.9356 45.1259C86.9356 46.8699 86.5288 48.4445 85.7155 49.8499C84.902 51.2383 83.8005 52.322 82.411 53.1009C81.0214 53.8797 79.4878 54.2692 77.8101 54.2692ZM77.8101 50.307C79.2336 50.307 80.3689 49.8329 81.2162 48.8847C82.0805 47.9365 82.5127 46.6836 82.5127 45.1259C82.5127 43.5511 82.0805 42.2982 81.2162 41.3669C80.3689 40.4187 79.2336 39.9446 77.8101 39.9446C76.3697 39.9446 75.2173 40.4102 74.353 41.3415C73.5057 42.2728 73.0821 43.5342 73.0821 45.1259C73.0821 46.7005 73.5057 47.9619 74.353 48.9101C75.2173 49.8414 76.3697 50.307 77.8101 50.307ZM100.538 36.2619V48.4022C100.538 50.2817 100.005 51.7293 98.937 52.7452C97.8864 53.7613 96.4629 54.2692 94.6666 54.2692C92.7856 54.2692 91.2774 53.7359 90.142 52.6691C89.0066 51.6024 88.4389 50.0869 88.4389 48.1228H92.7602C92.7602 48.8678 92.9127 49.4351 93.2178 49.8245C93.5228 50.197 93.9633 50.3833 94.5396 50.3833C95.0648 50.3833 95.4715 50.214 95.7597 49.8752C96.0478 49.5367 96.1918 49.0456 96.1918 48.4022V36.2619H100.538ZM108.396 39.7414V43.3479H114.217V46.7005H108.396V50.6119H114.98V54.0914H104.049V36.2619H114.98V39.7414H108.396ZM117.065 45.1513C117.065 43.3902 117.446 41.8241 118.208 40.4526C118.971 39.0641 120.03 37.989 121.386 37.227C122.758 36.4481 124.309 36.0587 126.038 36.0587C128.156 36.0587 129.968 36.6174 131.477 37.735C132.985 38.8524 133.994 40.3764 134.502 42.3067H129.724C129.367 41.5617 128.859 40.9944 128.198 40.605C127.554 40.2155 126.817 40.0208 125.987 40.0208C124.648 40.0208 123.563 40.4864 122.733 41.4177C121.903 42.349 121.488 43.5935 121.488 45.1513C121.488 46.709 121.903 47.9535 122.733 48.8847C123.563 49.816 124.648 50.2817 125.987 50.2817C126.817 50.2817 127.554 50.0869 128.198 49.6976C128.859 49.3081 129.367 48.7409 129.724 47.9959H134.502C133.994 49.9261 132.985 51.45 131.477 52.5676C129.968 53.6681 128.156 54.2185 126.038 54.2185C124.309 54.2185 122.758 53.8374 121.386 53.0755C120.03 52.2967 118.971 51.2214 118.208 49.8499C117.446 48.4785 117.065 46.9122 117.065 45.1513ZM150 36.2619V39.7414H145.272V54.0914H140.926V39.7414H136.198V36.2619H150Z" fill="#57C4D9"/>
</g>
<defs>
<clipPath id="clip0_1720_2">
<rect width="150" height="57.6923" fill="white"/>
</clipPath>
</defs>
</svg>
