<svg width="62" height="62" viewBox="0 0 62 62" fill="none" xmlns="http://www.w3.org/2000/svg">
<path d="M14.5714 25.0276C13.9053 25.0276 13.2661 25.1291 12.6299 25.2217C12.836 24.5288 13.0481 23.8238 13.3886 23.1906C13.7291 22.2706 14.2608 21.4731 14.7895 20.6696C15.2316 19.8004 16.0112 19.2119 16.5847 18.4682C17.185 17.7453 18.0035 17.2644 18.6517 16.664C19.2879 16.0368 20.1212 15.7231 20.7844 15.2811C21.4773 14.8838 22.0807 14.4447 22.7259 14.2356L24.3359 13.5725L25.7517 12.9841L24.303 7.19531L22.5198 7.62544C21.9493 7.76881 21.2533 7.93608 20.4618 8.13621C19.6523 8.28556 18.7891 8.69478 17.8272 9.06815C16.8774 9.4923 15.7782 9.77905 14.7566 10.4601C13.7291 11.1112 12.5433 11.6549 11.4978 12.5271C10.4853 13.4262 9.26358 14.2058 8.36151 15.3498C7.37581 16.4191 6.40205 17.5422 5.64635 18.8206C4.77116 20.0393 4.17675 21.3775 3.54949 22.7007C2.98196 24.024 2.52495 25.3771 2.15158 26.6913C1.44367 29.3258 1.12705 31.8289 1.00458 33.9706C0.903025 36.1153 0.962765 37.8985 1.08822 39.1889C1.13302 39.7982 1.21666 40.3896 1.2764 40.7988L1.35107 41.3007L1.42873 41.2827C1.96 43.7644 3.183 46.045 4.95625 47.8606C6.7295 49.6762 8.98054 50.9528 11.449 51.5425C13.9174 52.1322 16.5024 52.0111 18.9048 51.193C21.3073 50.375 23.429 48.8935 25.0247 46.92C26.6203 44.9465 27.6247 42.5615 27.9215 40.041C28.2183 37.5205 27.7955 34.9675 26.702 32.6773C25.6084 30.3871 23.8888 28.4532 21.7421 27.0995C19.5954 25.7458 17.1093 25.0274 14.5714 25.0276ZM47.4282 25.0276C46.7621 25.0276 46.1229 25.1291 45.4867 25.2217C45.6928 24.5288 45.9048 23.8238 46.2454 23.1906C46.5859 22.2706 47.1176 21.4731 47.6463 20.6696C48.0883 19.8004 48.8679 19.2119 49.4414 18.4682C50.0418 17.7453 50.8602 17.2644 51.5084 16.664C52.1446 16.0368 52.978 15.7231 53.6411 15.2811C54.3341 14.8838 54.9375 14.4447 55.5827 14.2356L57.1926 13.5725L58.6085 12.9841L57.1598 7.19531L55.3766 7.62544C54.806 7.76881 54.1101 7.93608 53.3185 8.13621C52.5091 8.28556 51.6458 8.69478 50.684 9.06815C49.7371 9.49529 48.6349 9.77905 47.6134 10.4631C46.5859 11.1142 45.4 11.6579 44.3546 12.5301C43.342 13.4291 42.1203 14.2087 41.2183 15.3498C40.2326 16.4191 39.2588 17.5422 38.5031 18.8206C37.6279 20.0393 37.0335 21.3775 36.4063 22.7007C35.8387 24.024 35.3817 25.3771 35.0083 26.6913C34.3004 29.3258 33.9838 31.8289 33.8613 33.9706C33.7598 36.1153 33.8195 37.8985 33.945 39.1889C33.9898 39.7982 34.0734 40.3896 34.1332 40.7988L34.2078 41.3007L34.2855 41.2827C34.8168 43.7644 36.0398 46.045 37.813 47.8606C39.5863 49.6762 41.8373 50.9528 44.3057 51.5425C46.7742 52.1322 49.3591 52.0111 51.7616 51.193C54.164 50.375 56.2858 48.8935 57.8815 46.92C59.4771 44.9465 60.4814 42.5615 60.7783 40.041C61.0751 37.5205 60.6523 34.9675 59.5587 32.6773C58.4652 30.3871 56.7456 28.4532 54.5989 27.0995C52.4522 25.7458 49.9661 25.0274 47.4282 25.0276Z" fill="white"/>
</svg>
