<svg width="15" height="15" viewBox="0 0 15 15" fill="none" xmlns="http://www.w3.org/2000/svg">
<g clip-path="url(#clip0_1605_12)">
<mask id="mask0_1605_12" style="mask-type:luminance" maskUnits="userSpaceOnUse" x="0" y="0" width="15" height="15">
<path d="M15 0H0V15H15V0Z" fill="white"/>
</mask>
<g mask="url(#mask0_1605_12)">
<path d="M7.84757 0C8.09513 0.047168 8.34562 0.0820312 8.58937 0.143848C10.3308 0.585645 11.6362 2.12256 11.8009 3.91699C12.0027 6.11514 10.5798 8.0833 8.42355 8.56728C8.10802 8.63818 7.77726 8.66338 7.45294 8.66777C6.20109 8.68506 4.97882 8.85645 3.80841 9.31992C3.15275 9.57949 2.5375 9.91318 2.00137 10.3781C1.4626 10.8451 1.19219 11.441 1.18164 12.1535C1.17637 12.5051 1.1793 12.8566 1.18105 13.2079C1.18281 13.5844 1.42773 13.8278 1.80684 13.8278C5.59757 13.8284 9.38829 13.8284 13.179 13.8278C13.5672 13.8278 13.8139 13.5855 13.8112 13.2C13.808 12.7465 13.8224 12.2906 13.7814 11.84C13.7289 11.2632 13.4515 10.7851 13.0191 10.401C12.589 10.0189 12.0985 9.73184 11.5782 9.49219C11.256 9.34395 11.1162 9.05947 11.2114 8.75801C11.3072 8.45479 11.6409 8.25586 11.931 8.38066C12.9364 8.81338 13.8605 9.36416 14.4637 10.3242C14.8035 10.865 14.9726 11.4618 14.9787 12.0999C14.9831 12.5631 15.0068 13.0313 14.9532 13.4889C14.8627 14.2588 14.2973 14.821 13.5408 14.9716C13.5136 14.9771 13.4878 14.9903 13.4614 15C9.48497 15 5.50821 15 1.53174 15C1.50068 14.9897 1.46992 14.9766 1.43799 14.9698C0.922363 14.8585 0.514257 14.5857 0.256445 14.124C0.145117 13.9248 0.0912111 13.6934 0.0112305 13.4766C0.0112305 12.9296 0.0112305 12.3829 0.0112305 11.8359C0.0197266 11.8087 0.0326165 11.782 0.0361321 11.7539C0.150976 10.8141 0.575781 10.043 1.29883 9.43682C2.09834 8.7665 3.01476 8.31416 4.00382 8.00273C4.2754 7.91719 4.55196 7.84775 4.82648 7.7707C4.8215 7.75459 4.8215 7.74346 4.81564 7.73789C4.79835 7.7209 4.77902 7.70596 4.76027 7.69014C3.59864 6.69316 3.0631 5.43252 3.19464 3.90264C3.34376 2.16826 4.61642 0.640137 6.29103 0.176075C6.57052 0.0987308 6.86027 0.0577148 7.14532 0C7.3797 0 7.61378 0 7.84757 0ZM4.33898 4.33154C4.33722 6.07647 5.75519 7.49971 7.49601 7.5C9.23126 7.50029 10.6489 6.08525 10.6545 4.34736C10.6598 2.60127 9.24532 1.17539 7.5045 1.17217C5.76193 1.16865 4.34073 2.58691 4.33898 4.33154Z" fill="white"/>
</g>
</g>
<defs>
<clipPath id="clip0_1605_12">
<rect width="15" height="15" fill="white"/>
</clipPath>
</defs>
</svg>
